<?xml version="1.0" encoding="UTF-8"?>
<svg id="a" data-name="Layer 1" xmlns="http://www.w3.org/2000/svg" viewBox="0 0 130 59.57">
  <defs>
    <style>
      .d {
        fill: #fff;
      }

      .e {
        fill: #2d539e;
        isolation: isolate;
        opacity: .97;
      }
    </style>
  </defs>
  <path d="m105.51,13.27V4.14h-8.75c-3.05,0-6.24.89-8.48,3.3h0s-.51.55-.51.55v.16c-1.36,1.77-1.91,3.86-2.13,6h-2.89v1.4c-2.06-1.17-4.37-1.76-6.72-1.76-.76,0-1.43.23-2.15.36h-14.42v1.26c-.73-.31-1.41-.75-2.19-.96-1.61-.45-3.29-.67-5.01-.67s-3.25.24-4.8.63L52.59,0h-15.59s-.45,1.28-.45,1.28l-.76,2.14-4.7,13.26v-7.43l-7.82,4.78L0,28.24l22.15,13.58-5.05,14.24h15.59l5.23-14.74c.11.24.14.5.26.73,1.29,2.45,3.27,4.46,5.7,5.78l.18.12.14.05c2.46,1.25,5.21,1.78,8.06,1.78,1.52,0,3.01-.22,4.46-.57h.26l.24-.06h0c.79-.21,1.49-.64,2.23-.96v11.39h15.18v-9.95c.39.03.76.16,1.15.16,2.57,0,5.11-.58,7.33-1.92l-.02.02.07-.04.07-.05-.08.05c.85-.52,1.55-1.22,2.24-1.92v3.51h15.18v-3.14l29.42-18.03-24.49-14.97Z"/>
  <g>
    <path id="b" data-name="path1407" class="d" d="m25.94,18.4l-16.1,9.85,16.1,9.87v-5.66l-7.34-4.21,7.34-4.24v-5.61Z"/>
    <path id="c" data-name="path2953" class="d" d="m104.06,18.4l16.1,9.85-16.1,9.87v-5.66l7.34-4.21-7.34-4.24v-5.61Z"/>
  </g>
  <g>
    <path class="e" d="m47.94,25.19c1.04-1.06,2.51-1.59,4.41-1.59,1.03,0,2.01.22,2.96.65.95.43,1.77,1.05,2.48,1.85l3.54-3.18c-.61-.85-1.37-1.57-2.29-2.17-.91-.59-1.95-1.04-3.11-1.35-1.14-.32-2.36-.48-3.66-.48-2.28,0-4.23.43-5.85,1.28-1.6.83-2.83,2.05-3.68,3.66-.85,1.6-1.28,3.54-1.28,5.8v4.12c0,2.29.43,4.25,1.28,5.87.85,1.62,2.08,2.86,3.68,3.71,1.62.85,3.57,1.28,5.85,1.28,1.28,0,2.5-.15,3.63-.46,1.16-.3,2.19-.75,3.11-1.32.91-.59,1.69-1.31,2.31-2.14l-3.54-3.42c-.69.85-1.51,1.51-2.46,1.97-.95.47-1.94.7-2.99.7-1.91,0-3.39-.54-4.43-1.61-1.03-1.08-1.54-2.6-1.54-4.57v-4.12c0-1.93.52-3.42,1.56-4.48Z"/>
    <path class="e" d="m80.56,20.13c-1.25-.8-2.76-1.2-4.53-1.2-1.49,0-2.85.4-4.07,1.2-.96.62-1.78,1.45-2.46,2.5v-3.34h-4.91v35.15h4.91v-13.35c.54,1.02,1.27,1.83,2.21,2.45,1.16.74,2.51,1.11,4.07,1.11,1.81,0,3.37-.39,4.67-1.18,1.3-.8,2.29-1.96,2.96-3.47.67-1.51,1.01-3.32,1.01-5.44v-5.44c0-2.15-.33-3.99-.99-5.51-.66-1.52-1.62-2.68-2.89-3.47Zm-1.04,14.42c0,1.8-.45,3.19-1.35,4.19-.88.98-2.13,1.47-3.76,1.47-1.04,0-1.93-.2-2.67-.6-.72-.4-1.28-.98-1.66-1.73-.39-.75-.58-1.67-.58-2.74v-6.81c0-1.04.19-1.93.58-2.67.39-.75.94-1.32,1.66-1.71.74-.39,1.63-.58,2.67-.58,1.62,0,2.87.51,3.76,1.52.9,1.01,1.35,2.43,1.35,4.26v5.42Z"/>
    <path class="e" d="m92.05,10.94c-1.01,1.09-1.52,2.74-1.52,4.96v3.39h-2.65v4.19h2.65v20.8h4.91v-20.8h4.93v-4.19h-4.93v-3.44c0-.56.12-1.02.36-1.37.24-.35.59-.53,1.06-.53h3.51v-4.67h-3.61c-2.12,0-3.69.55-4.72,1.66Z"/>
    <polygon class="e" points="40.62 5.14 24.37 50.92 29.07 50.92 45.32 5.14 40.62 5.14"/>
  </g>
</svg>